<svg aria-hidden="true" style="width:0;height:0;position:absolute;overflow:hidden" xmlns="http://www.w3.org/2000/svg"><defs><symbol id="icon-film" viewBox="0 0 32 32"><path fill="transparent" stroke-linejoin="round" stroke-linecap="round" stroke-width="2.17" d="M26.427 2.667H5.574a2.907 2.907 0 0 0-2.907 2.907v20.853a2.907 2.907 0 0 0 2.907 2.907h20.853a2.907 2.907 0 0 0 2.907-2.907V5.574a2.907 2.907 0 0 0-2.907-2.907zM9.333 2.667v26.667M22.667 2.667v26.667M2.667 16h26.667M2.667 9.333h6.667M2.667 22.667h6.667M22.667 22.667h6.667M22.667 9.333h6.667"/></symbol><symbol id="search-icon" viewBox="0 0 24 24"><path fill="currentColor" d="M16.041 15.856a.995.995 0 0 0-.186.186A6.97 6.97 0 0 1 11 18c-1.933 0-3.682-.782-4.95-2.05S4 12.933 4 11s.782-3.682 2.05-4.95S9.067 4 11 4s3.682.782 4.95 2.05S18 9.067 18 11a6.971 6.971 0 0 1-1.959 4.856zm5.666 4.437-3.675-3.675A8.967 8.967 0 0 0 20 11c0-2.485-1.008-4.736-2.636-6.364S13.485 2 11 2 6.264 3.008 4.636 4.636 2 8.515 2 11s1.008 4.736 2.636 6.364S8.515 20 11 20a8.967 8.967 0 0 0 5.618-1.968l3.675 3.675a.999.999 0 1 0 1.414-1.414z"/></symbol><symbol id="icon-arrow-up" viewBox="0 0 32 32"><path fill="currentColor" d="m27.414 12.586-10-10a2 2 0 0 0-2.828 0l-10 10a2 2 0 1 0 2.828 2.828L14 8.828V28a2 2 0 1 0 4 0V8.828l6.586 6.586c.39.39.902.586 1.414.586s1.024-.195 1.414-.586a2 2 0 0 0 0-2.828z"/></symbol><symbol id="icon-arrow-right" viewBox="0 0 32 32"><path fill="currentColor" d="m19.414 27.414 10-10a2 2 0 0 0 0-2.828l-10-10a2 2 0 1 0-2.828 2.828L23.172 14H4a2 2 0 1 0 0 4h19.172l-6.586 6.586c-.39.39-.586.902-.586 1.414s.195 1.024.586 1.414a2 2 0 0 0 2.828 0z"/></symbol><symbol id="icon-arrow-left" viewBox="0 0 32 32"><path fill="currentColor" d="m12.586 27.414-10-10a2 2 0 0 1 0-2.828l10-10a2 2 0 1 1 2.828 2.828L8.828 14H28a2 2 0 1 1 0 4H8.828l6.586 6.586c.39.39.586.902.586 1.414s-.195 1.024-.586 1.414a2 2 0 0 1-2.828 0z"/></symbol><symbol id="icon-movie" viewBox="0 0 32 32"><path fill="currentColor" d="M4 6v22h22V6H4zm4 20H6v-2h2v2zm0-3H6v-2h2v2zm0-3H6v-2h2v2zm0-4H6v-2h2v2zm0-3H6v-2h2v2zm0-3H6V8h2v2zm12 16H10v-8h10v8zm0-10H10V8h10v8zm4 10h-2v-2h2v2zm0-3h-2v-2h2v2zm0-3h-2v-2h2v2zm0-4h-2v-2h2v2zm0-3h-2v-2h2v2zm0-3h-2V8h2v2z"/></symbol></defs></svg>