<svg id="svg" xmlns="http://www.w3.org/2000/svg" viewBox="0 0 500 451.869"><g id="svgg"><path id="path0" d="M183.618.098c-17.033 1.039-30.242 3.744-44.581 9.131-22.747 8.545-45.173 24.13-63.603 44.2-36.064 39.275-46.258 96.047-25.872 144.098 2.517 5.934 4.726 10.26 8.936 17.5 4.372 7.518 10.239 17.787 10.239 17.92 0 .07-3.958 1.246-8.795 2.614-17.924 5.071-23.362 7.514-31.829 14.299-21.571 17.288-32.706 52.734-26.329 83.817 7.717 37.615 33.697 59.506 69.823 58.832 16.959-.317 34.005-5.573 52.841-16.293 6.758-3.847 21.162-11.63 21.287-11.503.051.052.9 3.075 1.888 6.718 2.624 9.683 4.435 15.99 5.439 18.945 9.101 26.762 28.529 45.439 57.368 55.149 31.251 10.522 63.431 8.068 93.883-7.161 32.325-16.165 50.564-41.108 54.97-75.176.412-3.187 3.489-16.69 3.9-17.116.056-.058 8.981 5.841 12.075 7.981 4.622 3.197 8.676 5.411 13.177 7.195 23.857 9.461 51.361 1.408 68.718-20.119 16.571-20.554 24.092-42.729 22.545-66.475-1.401-21.506-9.765-36.371-27.166-48.282-3.501-2.396-11.472-8.078-11.516-8.209-.019-.057 2.328-1.361 5.216-2.9 11.408-6.076 14.505-7.93 19.548-11.702 26.561-19.867 39.128-52.884 32.524-85.453-7.604-37.502-41.882-67.663-83.526-73.492-38.904-5.445-67.108 6.423-86.077 36.221-2.178 3.422-2.412 3.742-6.274 8.575l-3.597 4.502-.654-1.218c-.359-.67-2.691-5.225-5.181-10.123-8.657-17.029-11.47-22.113-16.041-28.996C275.741 21.628 244.916 3.779 205.328.523c-5.659-.466-17.305-.694-21.71-.425m13.468 34.345c28.631 1.248 48.547 7.388 69.105 21.305 18.001 12.187 31.31 27.341 39.75 45.263 2.261 4.801 2.797 6.201 8.454 22.112 1.957 5.505 3.575 10.026 3.595 10.047.02.02.638-.742 1.372-1.693.734-.952 1.905-2.459 2.602-3.349 2.191-2.8 2.618-3.952 5.162-13.91 3.961-15.508 7.902-23.806 15.584-32.815 23.981-28.124 71.688-31.144 101.29-6.411 19.479 16.275 31.161 41.422 31.181 67.119.026 34.071-20.091 62.046-52.97 73.66-6.081 2.147-7.167 2.558-7.235 2.736-.106.277.367 2.125.771 3.007 1.196 2.613 3.089 3.884 7.995 5.368 3.909 1.183 5.236 1.826 9.508 4.61 27.081 17.651 37.336 49.786 25.47 79.812-16.849 42.633-68.387 52.132-98.662 18.185-1.713-1.921-3.821-4.531-8.387-10.384-2.159-2.768-1.966-2.67-3.657-1.843-2.55 1.249-3.215 2.94-2.636 6.7 1.049 6.804.334 18.676-1.64 27.23-8.145 35.303-42.071 66.048-81.595 73.944-42.921 8.575-79.045-7.147-96.472-41.986-3.215-6.426-7.991-19.589-9.417-25.952-1.204-5.369-1.195-11.899.017-12.893 1.591-1.304 4.42-2.17 6.667-2.04 1.319.076 1.889.201 6.182 1.352 1.532.411 2.23.493 8.795 1.029 17.523 1.431 32.09-1.284 47.357-8.825 7.241-3.576 9.619-5.415 15.877-12.28 1.954-2.143 3.908-4.286 4.343-4.761.435-.476.766-.887.736-.913-.093-.08-5.183 1.131-16.319 3.885-18.205 4.501-25.06 5.954-32.971 6.989-13.915 1.82-28.447-1.669-44.201-10.611-10.414-5.911-14.59-10.792-27.564-32.216l-2.05-3.385-.092 1.03c-.152 1.7-.137 8.44.022 9.862.798 7.145 3.617 13.361 17.607 38.828l3.299 6.005-.44 1.722c-7.229 28.298-41.802 44.771-70.293 33.493-17.431-6.9-34.623-21.903-44.334-38.688-15.679-27.102-14.609-51.412 3.077-69.921 7.469-7.816 15.352-12.303 36.915-21.013 5.994-2.421 9.153-3.751 9.328-3.926.343-.343-.559-6.635-1.435-10.012-1.185-4.563-2.554-8.15-6.486-16.986-3.988-8.961-4.947-11.454-6.949-18.045-12.316-40.549-5.337-77.596 20.592-109.316 28.85-35.292 68.216-53.077 113.152-51.119" stroke="none" fill="#e1d11b" fill-rule="evenodd"/></g></svg>