<!-- Generated by IcoMoon.io -->
<svg id="svg" xmlns="http://www.w3.org/2000/svg" xmlns:xlink="http://www.w3.org/1999/xlink" viewBox="0, 0, 500,451.86929643803353"><g id="svgg"><path id="path0" d="M183.618 0.098 C 166.585 1.137,153.376 3.842,139.037 9.229 C 116.290 17.774,93.864 33.359,75.434 53.429 C 39.370 92.704,29.176 149.476,49.562 197.527 C 52.079 203.461,54.288 207.787,58.498 215.027 C 62.870 222.545,68.737 232.814,68.737 232.947 C 68.737 233.017,64.779 234.193,59.942 235.561 C 42.018 240.632,36.580 243.075,28.113 249.860 C 6.542 267.148,-4.593 302.594,1.784 333.677 C 9.501 371.292,35.481 393.183,71.607 392.509 C 88.566 392.192,105.612 386.936,124.448 376.216 C 131.206 372.369,145.610 364.586,145.735 364.713 C 145.786 364.765,146.635 367.788,147.623 371.431 C 150.247 381.114,152.058 387.421,153.062 390.376 C 162.163 417.138,181.591 435.815,210.430 445.525 C 241.681 456.047,273.861 453.593,304.313 438.364 C 336.638 422.199,354.877 397.256,359.283 363.188 C 359.695 360.001,362.772 346.498,363.183 346.072 C 363.239 346.014,372.164 351.913,375.258 354.053 C 379.880 357.250,383.934 359.464,388.435 361.248 C 412.292 370.709,439.796 362.656,457.153 341.129 C 473.724 320.575,481.245 298.400,479.698 274.654 C 478.297 253.148,469.933 238.283,452.532 226.372 C 449.031 223.976,441.060 218.294,441.016 218.163 C 440.997 218.106,443.344 216.802,446.232 215.263 C 457.640 209.187,460.737 207.333,465.780 203.561 C 492.341 183.694,504.908 150.677,498.304 118.108 C 490.700 80.606,456.422 50.445,414.778 44.616 C 375.874 39.171,347.670 51.039,328.701 80.837 C 326.523 84.259,326.289 84.579,322.427 89.412 L 318.830 93.914 318.176 92.696 C 317.817 92.026,315.485 87.471,312.995 82.573 C 304.338 65.544,301.525 60.460,296.954 53.577 C 275.741 21.628,244.916 3.779,205.328 0.523 C 199.669 0.057,188.023 -0.171,183.618 0.098 M197.086 34.443 C 225.717 35.691,245.633 41.831,266.191 55.748 C 284.192 67.935,297.501 83.089,305.941 101.011 C 308.202 105.812,308.738 107.212,314.395 123.123 C 316.352 128.628,317.970 133.149,317.990 133.170 C 318.010 133.190,318.628 132.428,319.362 131.477 C 320.096 130.525,321.267 129.018,321.964 128.128 C 324.155 125.328,324.582 124.176,327.126 114.218 C 331.087 98.710,335.028 90.412,342.710 81.403 C 366.691 53.279,414.398 50.259,444.000 74.992 C 463.479 91.267,475.161 116.414,475.181 142.111 C 475.207 176.182,455.090 204.157,422.211 215.771 C 416.130 217.918,415.044 218.329,414.976 218.507 C 414.870 218.784,415.343 220.632,415.747 221.514 C 416.943 224.127,418.836 225.398,423.742 226.882 C 427.651 228.065,428.978 228.708,433.250 231.492 C 460.331 249.143,470.586 281.278,458.720 311.304 C 441.871 353.937,390.333 363.436,360.058 329.489 C 358.345 327.568,356.237 324.958,351.671 319.105 C 349.512 316.337,349.705 316.435,348.014 317.262 C 345.464 318.511,344.799 320.202,345.378 323.962 C 346.427 330.766,345.712 342.638,343.738 351.192 C 335.593 386.495,301.667 417.240,262.143 425.136 C 219.222 433.711,183.098 417.989,165.671 383.150 C 162.456 376.724,157.680 363.561,156.254 357.198 C 155.050 351.829,155.059 345.299,156.271 344.305 C 157.862 343.001,160.691 342.135,162.938 342.265 C 164.257 342.341,164.827 342.466,169.120 343.617 C 170.652 344.028,171.350 344.110,177.915 344.646 C 195.438 346.077,210.005 343.362,225.272 335.821 C 232.513 332.245,234.891 330.406,241.149 323.541 C 243.103 321.398,245.057 319.255,245.492 318.780 C 245.927 318.304,246.258 317.893,246.228 317.867 C 246.135 317.787,241.045 318.998,229.909 321.752 C 211.704 326.253,204.849 327.706,196.938 328.741 C 183.023 330.561,168.491 327.072,152.737 318.130 C 142.323 312.219,138.147 307.338,125.173 285.914 L 123.123 282.529 123.031 283.559 C 122.879 285.259,122.894 291.999,123.053 293.421 C 123.851 300.566,126.670 306.782,140.660 332.249 L 143.959 338.254 143.519 339.976 C 136.290 368.274,101.717 384.747,73.226 373.469 C 55.795 366.569,38.603 351.566,28.892 334.781 C 13.213 307.679,14.283 283.369,31.969 264.860 C 39.438 257.044,47.321 252.557,68.884 243.847 C 74.878 241.426,78.037 240.096,78.212 239.921 C 78.555 239.578,77.653 233.286,76.777 229.909 C 75.592 225.346,74.223 221.759,70.291 212.923 C 66.303 203.962,65.344 201.469,63.342 194.878 C 51.026 154.329,58.005 117.282,83.934 85.562 C 112.784 50.270,152.150 32.485,197.086 34.443 " stroke="none" fill="#e1d11b" fill-rule="evenodd"></path></g>
</svg>
